<?xml version="1.0" encoding="UTF-8" standalone="no"?>
<!-- Created with Inkscape (http://www.inkscape.org/) -->

<svg
   xmlns:dc="http://purl.org/dc/elements/1.1/"
   xmlns:cc="http://creativecommons.org/ns#"
   xmlns:rdf="http://www.w3.org/1999/02/22-rdf-syntax-ns#"
   xmlns:svg="http://www.w3.org/2000/svg"
   xmlns="http://www.w3.org/2000/svg"
   xmlns:sodipodi="http://sodipodi.sourceforge.net/DTD/sodipodi-0.dtd"
   xmlns:inkscape="http://www.inkscape.org/namespaces/inkscape"
   width="158.04445mm"
   height="67.73333mm"
   viewBox="0 0 560.00002 239.99999"
   id="svg5578"
   version="1.1"
   inkscape:version="0.91 r13725"
   sodipodi:docname="PixelartPoliceCar.svg">
  <defs
     id="defs5580" />
  <sodipodi:namedview
     id="base"
     pagecolor="#ffffff"
     bordercolor="#666666"
     borderopacity="1.0"
     inkscape:pageopacity="0.0"
     inkscape:pageshadow="2"
     inkscape:zoom="1.8553571"
     inkscape:cx="280.00001"
     inkscape:cy="119.99999"
     inkscape:document-units="px"
     inkscape:current-layer="layer1"
     showgrid="false"
     fit-margin-top="0"
     fit-margin-left="0"
     fit-margin-right="0"
     fit-margin-bottom="0"
     inkscape:window-width="1600"
     inkscape:window-height="837"
     inkscape:window-x="-8"
     inkscape:window-y="-8"
     inkscape:window-maximized="1" />
  <metadata
     id="metadata5583">
    <rdf:RDF>
      <cc:Work
         rdf:about="">
        <dc:format>image/svg+xml</dc:format>
        <dc:type
           rdf:resource="http://purl.org/dc/dcmitype/StillImage" />
        <dc:title></dc:title>
      </cc:Work>
    </rdf:RDF>
  </metadata>
  <g
     inkscape:label="Layer 1"
     inkscape:groupmode="layer"
     id="layer1"
     transform="translate(-117.14284,-335.21935)">
    <g
       transform="translate(197.14284,102.85802)"
       id="g5551">
      <path
         id="rect5173"
         d="m 180,292.36133 0,20 -20,0 0,20 -20,0 0,20 20,0 20,0 20,0 20,0 20,0 0,-20 0,-20 0,-20 -20,0 -20,0 -20,0 z m 80,0 0,20 0,20 0,20 20,0 20,0 20,0 20,0 0,-20 0,-20 -20,0 0,-20 -20,0 -20,0 -20,0 z m -240,100 0,20 -20,0 0,20 0,20 20,0 0,20 20,0 20,0 0,-20 20,0 0,-20 0,-20 -20,0 0,-20 -20,0 -20,0 z m 340,0 0,20 -20,0 0,20 0,20 20,0 0,20 20,0 20,0 0,-20 20,0 0,-20 0,-20 -20,0 0,-20 -20,0 -20,0 z"
         style="opacity:1;fill:#696a6a;fill-opacity:1;stroke:none;stroke-width:1;stroke-miterlimit:4;stroke-dasharray:none;stroke-dashoffset:0;stroke-opacity:1"
         inkscape:connector-curvature="0" />
      <path
         id="rect5197"
         d="m 160,272.36133 0,20 20,0 20,0 20,0 20,0 20,0 20,0 20,0 20,0 20,0 0,-20 -20,0 -20,0 -20,0 -20,0 -20,0 -20,0 -20,0 -20,0 -20,0 z m 180,20 0,20 20,0 0,-20 -20,0 z m 20,20 0,20 20,0 0,-20 -20,0 z m 20,20 0,20 0,20 -20,0 0,20 20,0 20,0 0,-20 20,0 20,0 0,-20 -20,0 -20,0 0,-20 -20,0 z m 60,40 0,20 20,0 0,-20 -20,0 z m -40,20 0,20 20,0 0,-20 -20,0 z m 20,20 0,20 20,0 20,0 0,-20 -20,0 -20,0 z m -60,-20 -20,0 0,20 20,0 0,-20 z m -20,20 -20,0 -20,0 -20,0 -20,0 -20,0 -20,0 -20,0 -20,0 -20,0 -20,0 -20,0 0,-20 0,-20 0,-20 0,-20 -20,0 -20,0 -20,0 0,20 20,0 20,0 0,20 0,20 0,20 -20,0 0,20 20,0 20,0 20,0 20,0 20,0 20,0 20,0 20,0 20,0 20,0 20,0 20,0 20,0 0,-20 z m -260,0 0,-20 -20,0 0,20 20,0 z m -20,-20 0,-20 0,-20 -20,0 -20,0 -20,0 -20,0 0,20 20,0 20,0 0,20 20,0 20,0 z m -40,0 -20,0 0,20 20,0 0,-20 z m -20,20 -20,0 -20,0 -20,0 0,20 20,0 20,0 20,0 0,-20 z m -20,-40 -20,0 0,20 20,0 0,-20 z m 140,-40 20,0 0,-20 -20,0 0,20 z m 20,-20 20,0 0,-20 -20,0 0,20 z"
         style="opacity:1;fill:#222034;fill-opacity:1;stroke:none;stroke-width:1;stroke-miterlimit:4;stroke-dasharray:none;stroke-dashoffset:0;stroke-opacity:1"
         inkscape:connector-curvature="0" />
      <path
         id="rect5333"
         d="m 240,252.36133 0,20 20,0 0,-20 -20,0 z m -300,140 0,20 20,0 0,-20 -20,0 z m 500,0 0,20 20,0 0,-20 -20,0 z"
         style="opacity:1;fill:#d95763;fill-opacity:1;stroke:none;stroke-width:1;stroke-miterlimit:4;stroke-dasharray:none;stroke-dashoffset:0;stroke-opacity:1"
         inkscape:connector-curvature="0" />
      <path
         id="rect5335"
         d="m 240,232.36133 0,20 20,0 0,-20 -20,0 z m 20,20 0,20 20,0 0,-20 -20,0 z m -320,120 0,20 20,0 0,-20 -20,0 z m 0,20 -20,0 0,20 20,0 0,-20 z m 520,0 0,20 20,0 0,-20 -20,0 z"
         style="opacity:1;fill:#fbf236;fill-opacity:1;stroke:none;stroke-width:1;stroke-miterlimit:4;stroke-dasharray:none;stroke-dashoffset:0;stroke-opacity:1"
         inkscape:connector-curvature="0" />
      <path
         style="opacity:1;fill:#5b6ee1;fill-opacity:1;stroke:none;stroke-width:1;stroke-miterlimit:4;stroke-dasharray:none;stroke-dashoffset:0;stroke-opacity:1"
         d="m 220,252.36218 20,0 0,20 -20,0 z"
         id="rect5345"
         inkscape:connector-curvature="0" />
      <path
         id="rect5347"
         d="m 220,232.36133 0,20 20,0 0,-20 -20,0 z m 0,20 -20,0 0,20 20,0 0,-20 z"
         style="opacity:1;fill:#5fcde4;fill-opacity:1;stroke:none;stroke-width:1;stroke-miterlimit:4;stroke-dasharray:none;stroke-dashoffset:0;stroke-opacity:1"
         inkscape:connector-curvature="0" />
      <path
         id="rect5403"
         d="m 60,352.36133 0,20 0,20 20,0 0,20 20,0 0,-20 0,-20 0,-20 -20,0 -20,0 z m -80,20 0,20 -20,0 0,20 20,0 20,0 0,-20 20,0 0,-20 -20,0 -20,0 z m 420,0 0,20 20,0 0,20 20,0 0,-20 0,-20 -20,0 -20,0 z m -280,20 0,20 20,0 20,0 20,0 20,0 20,0 20,0 20,0 20,0 20,0 20,0 20,0 0,-20 -20,0 -20,0 -20,0 -20,0 -20,0 -20,0 -20,0 -20,0 -20,0 -20,0 -20,0 z"
         style="opacity:1;fill:#323c39;fill-opacity:1;stroke:none;stroke-width:1;stroke-miterlimit:4;stroke-dasharray:none;stroke-dashoffset:0;stroke-opacity:1"
         inkscape:connector-curvature="0" />
      <path
         inkscape:connector-curvature="0"
         id="rect5478"
         d="m 160,292.36133 0,20 20,0 0,-20 -20,0 z m 0,20 -20,0 0,20 20,0 0,-20 z m -20,20 -20,0 0,20 0,20 0,20 20,0 20,0 20,0 20,0 20,0 20,0 20,0 20,0 20,0 20,0 20,0 20,0 0,-20 20,0 0,-20 0,-20 -20,0 0,-20 -20,0 0,20 0,20 -20,0 -20,0 -20,0 -20,0 0,-20 0,-20 0,-20 -20,0 0,20 0,20 0,20 -20,0 -20,0 -20,0 -20,0 -20,0 0,-20 z m 200,-20 0,-20 -20,0 0,20 20,0 z"
         style="opacity:1;fill:#ffffff;fill-opacity:1;stroke:none;stroke-width:1;stroke-miterlimit:4;stroke-dasharray:none;stroke-dashoffset:0;stroke-opacity:1" />
    </g>
  </g>
</svg>
